ffmpeg started on 2016-11-27 at 17:12:18
Report written to "Output/NVENCh264/results/ffmpeg/crowd_run_2160p50llhp500k.log"
Command line:
Tools/ffmpeg/ffmpeg -benchmark -y -i Input/y4m/crowd_run_2160p50.y4m -c:v h264_nvenc -preset llhp -b:v 500k -an Output/NVENCh264/encoded/crowd_run_2160p50llhp500k.mkv
ffmpeg version N-82227-gdb23fde Copyright (c) 2000-2016 the FFmpeg developers
  built with gcc 5.4.0 (Ubuntu 5.4.0-6ubuntu1~16.04.2) 20160609
  configuration: --prefix=/home/jaroslav/ffmpeg_build --pkg-config-flags=--static --extra-cflags=-I/home/jaroslav/ffmpeg_build/include --extra-ldflags=-L/home/jaroslav/ffmpeg_build/lib --bindir=/home/jaroslav/bin --enable-gpl --enable-libass --enable-libfdk-aac --enable-libfreetype --enable-libmp3lame --enable-libopus --enable-libtheora --enable-libvorbis --enable-libvpx --enable-libx264 --enable-libx265 --enable-nvenc --enable-libmfx --enable-libxvid --enable-libgsm --enable-libopencore-amrnb --enable-version3 --enable-nonfree
  libavutil      55. 35.100 / 55. 35.100
  libavcodec     57. 66.101 / 57. 66.101
  libavformat    57. 57.100 / 57. 57.100
  libavdevice    57.  2.100 / 57.  2.100
  libavfilter     6. 66.100 /  6. 66.100
  libswscale      4.  3.100 /  4.  3.100
  libswresample   2.  4.100 /  2.  4.100
  libpostproc    54.  2.100 / 54.  2.100
Input #0, yuv4mpegpipe, from 'Input/y4m/crowd_run_2160p50.y4m':
  Duration: 00:00:10.00, start: 0.000000, bitrate: 4976642 kb/s
    Stream #0:0: Video: rawvideo (I420 / 0x30323449), yuv420p(progressive), 3840x2160, SAR 1:1 DAR 16:9, 50 fps, 50 tbr, 50 tbn, 50 tbc
[h264_nvenc @ 0x38dc1c0] The variable bitrate rate-control requires the 'qmin' and/or 'qmax' option set.
Output #0, matroska, to 'Output/NVENCh264/encoded/crowd_run_2160p50llhp500k.mkv':
  Metadata:
    encoder         : Lavf57.57.100
    Stream #0:0: Video: h264 (h264_nvenc) (Main) (H264 / 0x34363248), yuv420p, 3840x2160 [SAR 1:1 DAR 16:9], q=-1--1, 500 kb/s, 50 fps, 1k tbn, 50 tbc
    Metadata:
      encoder         : Lavc57.66.101 h264_nvenc
    Side data:
      cpb: bitrate max/min/avg: 0/0/500000 buffer size: 1000000 vbv_delay: -1
Stream mapping:
  Stream #0:0 -> #0:0 (rawvideo (native) -> h264 (h264_nvenc))
Press [q] to stop, [?] for help
frame=   14 fps=0.0 q=0.0 size=       0kB time=00:00:00.00 bitrate=N/A speed=   0x    frame=   30 fps= 29 q=0.0 size=       0kB time=00:00:00.00 bitrate=N/A speed=   0x    frame=   47 fps= 30 q=49.0 size=       1kB time=00:00:00.32 bitrate=  18.5kbits/s speed=0.207x    frame=   65 fps= 31 q=49.0 size=       1kB time=00:00:00.68 bitrate=   8.7kbits/s speed=0.33x    frame=   83 fps= 32 q=49.0 size=       1kB time=00:00:01.04 bitrate=   5.7kbits/s speed=0.402x    frame=  101 fps= 33 q=49.0 size=       1kB time=00:00:01.40 bitrate=   4.2kbits/s speed=0.451x    frame=  119 fps= 33 q=49.0 size=       1kB time=00:00:01.76 bitrate=   3.4kbits/s speed=0.485x    frame=  132 fps= 19 q=49.0 size=       1kB time=00:00:02.02 bitrate=   2.9kbits/s speed=0.297x    frame=  133 fps= 12 q=49.0 size=       1kB time=00:00:02.04 bitrate=   2.9kbits/s speed=0.187x    frame=  150 fps= 13 q=49.0 size=       1kB time=00:00:02.38 bitrate=   2.5kbits/s speed=0.208x    frame=  167 fps= 14 q=49.0 size=       1kB time=00:00:02.72 bitrate=   2.2kbits/s speed=0.228x    frame=  184 fps= 15 q=49.0 size=       1kB time=00:00:03.06 bitrate=   1.9kbits/s speed=0.246x    frame=  201 fps= 15 q=49.0 size=       1kB time=00:00:03.40 bitrate=   1.8kbits/s speed=0.262x    frame=  218 fps= 16 q=49.0 size=       1kB time=00:00:03.74 bitrate=   1.6kbits/s speed=0.278x    frame=  236 fps= 17 q=49.0 size=       1kB time=00:00:04.10 bitrate=   1.5kbits/s speed=0.293x    frame=  254 fps= 17 q=49.0 size=       1kB time=00:00:04.46 bitrate=   1.3kbits/s speed=0.307x    frame=  272 fps= 18 q=49.0 size=       1kB time=00:00:04.82 bitrate=   1.2kbits/s speed=0.32x    frame=  282 fps= 18 q=49.0 size=    3001kB time=00:00:05.02 bitrate=4896.0kbits/s speed=0.322x    frame=  300 fps= 19 q=49.0 size=    3001kB time=00:00:05.38 bitrate=4568.5kbits/s speed=0.334x    frame=  318 fps= 19 q=49.0 size=    3001kB time=00:00:05.74 bitrate=4282.0kbits/s speed=0.346x    frame=  336 fps= 20 q=49.0 size=    3001kB time=00:00:06.10 bitrate=4029.3kbits/s speed=0.356x    frame=  354 fps= 20 q=49.0 size=    3001kB time=00:00:06.46 bitrate=3804.8kbits/s speed=0.366x    frame=  372 fps= 20 q=49.0 size=    3001kB time=00:00:06.82 bitrate=3604.0kbits/s speed=0.375x    frame=  390 fps= 21 q=49.0 size=    3001kB time=00:00:07.18 bitrate=3423.3kbits/s speed=0.384x    frame=  408 fps= 21 q=49.0 size=    3001kB time=00:00:07.54 bitrate=3259.9kbits/s speed=0.393x    frame=  426 fps= 22 q=49.0 size=    3001kB time=00:00:07.90 bitrate=3111.4kbits/s speed=0.401x    frame=  444 fps= 22 q=49.0 size=    3001kB time=00:00:08.26 bitrate=2975.8kbits/s speed=0.408x    frame=  458 fps= 22 q=49.0 size=    3001kB time=00:00:08.54 bitrate=2878.2kbits/s speed=0.409x    frame=  476 fps= 22 q=49.0 size=    3001kB time=00:00:08.90 bitrate=2761.8kbits/s speed=0.416x    frame=  494 fps= 23 q=49.0 size=    3001kB time=00:00:09.26 bitrate=2654.5kbits/s speed=0.423x    frame=  500 fps= 23 q=49.0 Lsize=    6246kB time=00:00:09.98 bitrate=5126.4kbits/s speed=0.451x    
video:6242kB audio:0kB subtitle:0kB other streams:0kB global headers:0kB muxing overhead: 0.067966%
bench: utime=1.100s
bench: maxrss=1396580kB
